Input #0, mov,mp4,m4a,3gp,3g2,mj2, from 'https://commondatastorage.googleapis.com/gtv-videos-bucket/sample/ForBiggerFun.mp4':
  Metadata:
    major_brand     : mp42
    minor_version   : 0
    compatible_brands: isommp42
    creation_time   : 2013-07-26T18:36:04.000000Z
  Duration: 00:01:00.07, start: 0.000000, bitrate: 1720 kb/s
  Stream #0:0(und): Video: h264 (High) (avc1 / 0x31637661), yuv420p, 1280x720, 1525 kb/s, 23.98 fps, 23.98 tbr, 48k tbn, 47.95 tbc (default)
    Metadata:
      handler_name    : VideoHandler
      vendor_id       : [0][0][0][0]
  Stream #0:1(und): Audio: aac (LC) (mp4a / 0x6134706D), 44100 Hz, stereo, fltp, 191 kb/s (default)
    Metadata:
      creation_time   : 2013-07-26T18:36:06.000000Z
      handler_name    : IsoMedia File Produced by Google, 5-11-2011
      vendor_id       : [0][0][0][0]
Stream mapping:
  Stream #0:0 -> #0:0 (h264 (native) -> h264 (h264_nvenc))
Press [q] to stop, [?] for help
Output #0, mp4, to './test_results/temp_tests_gpu/test_test_50_5/output.mp4':
  Metadata:
    major_brand     : mp42
    minor_version   : 0
    compatible_brands: isommp42
    encoder         : Lavf58.76.100
  Stream #0:0(und): Video: h264 (Main) (avc1 / 0x31637661), yuv420p(progressive), 1280x720, q=2-31, 23.98 fps, 24k tbn (default)
    Metadata:
      handler_name    : VideoHandler
      vendor_id       : [0][0][0][0]
      encoder         : Lavc58.134.100 h264_nvenc
    Side data:
      cpb: bitrate max/min/avg: 3000000/0/0 buffer size: 4000000 vbv_delay: N/A
frame=    1 fps=0.0 q=0.0 size=       0kB time=00:00:00.00 bitrate=N/A speed=   0x    frame=    2 fps=0.0 q=0.0 size=       0kB time=00:00:00.00 bitrate=N/A speed=   0x    frame=  177 fps=137 q=23.0 size=    1280kB time=00:00:07.25 bitrate=1444.9kbits/s speed=5.64x    frame=  354 fps=198 q=25.0 size=    2560kB time=00:00:14.63 bitrate=1432.5kbits/s speed=8.19x    frame=  486 fps=212 q=27.0 size=    3840kB time=00:00:20.14 bitrate=1561.5kbits/s speed= 8.8x    frame=  735 fps=264 q=23.0 size=    5120kB time=00:00:30.53 bitrate=1373.8kbits/s speed=10.9x    frame=  936 fps=285 q=25.0 size=    6656kB time=00:00:38.91 bitrate=1401.2kbits/s speed=11.8x    frame= 1310 fps=346 q=23.0 size=    9472kB time=00:00:54.51 bitrate=1423.4kbits/s speed=14.4x    [mp4 @ 0x652e63a3e1c0] Starting second pass: moving the moov atom to the beginning of the file
frame= 1439 fps=358 q=23.0 Lsize=    9763kB time=00:00:59.97 bitrate=1333.5kbits/s speed=14.9x    
video:9757kB audio:0kB subtitle:0kB other streams:0kB global headers:0kB muxing overhead: 0.068432%
